<svg xmlns="http://www.w3.org/2000/svg" width="203" height="35" viewBox="0 0 203 35" fill="none"><g opacity="0.8"><path fill-rule="evenodd" clip-rule="evenodd" d="M29.8523 1.06796C33.3684 1.88387 34.7134 3.93987 36.3996 6.7697H29.8523V1.06796ZM9.30403 7.00732C9.99246 7.00732 10.4921 7.33962 10.4921 8.11623C10.4921 8.77124 9.96214 9.30249 9.30743 9.30435H2.12953C1.47328 9.30435 0.941406 9.83653 0.941406 10.4925C0.941406 11.1487 1.47328 11.6806 2.12953 11.6806H12.8226C13.485 11.6806 14.0154 12.2121 14.0154 12.8687C14.0154 13.525 13.4835 14.0568 12.8272 14.0568H2.12953C1.47328 14.0568 0.941406 14.5887 0.941406 15.2449C0.941406 15.9012 1.47328 16.4331 2.12953 16.4331H4.74339V19.9974C4.74339 20.6537 5.27526 21.1855 5.93151 21.1855H8.31981C8.74555 23.2827 10.5986 24.8291 12.783 24.8291C14.9674 24.8291 16.8204 23.2827 17.2462 21.1855H29.3099C29.7357 23.2827 31.5887 24.8291 33.7731 24.8291C35.9575 24.8291 37.8105 23.2827 38.2363 21.1855H40.3077C40.964 21.1855 41.4959 20.6537 41.4959 19.9974V12.8687C41.4959 9.38263 37.8189 9.15119 37.8155 9.14593H28.6642C28.0079 9.14593 27.4761 8.61406 27.4761 7.95781V0.829102H5.93151C5.27526 0.829102 4.74339 1.36097 4.74339 2.01722V4.63108H3.31764C2.66139 4.63108 2.12953 5.16295 2.12953 5.8192C2.12953 6.47545 2.66139 7.00732 3.31764 7.00732H9.30403ZM35.3133 18.7344C36.1639 19.585 36.1639 20.9646 35.3133 21.8152C33.9451 23.1834 31.5949 22.21 31.5949 20.2746C31.5949 18.3396 33.9451 17.3662 35.3133 18.7344ZM14.3232 18.7344C15.1738 19.585 15.1738 20.9646 14.3232 21.8152C12.955 23.1834 10.6048 22.21 10.6048 20.2746C10.6048 18.3396 12.955 17.3662 14.3232 18.7344Z" fill="#DCDCDC"></path><path d="M190.068 12.3603L189.067 10.0853H184.231L183.23 12.3603H181.891L186.012 3.26025H187.299L191.433 12.3603H190.068ZM184.686 9.04525H188.612L186.649 4.58625L184.686 9.04525Z" fill="#DCDCDC"></path><path d="M181.325 12.3603H179.908L177.945 9.56525C177.763 9.57825 177.568 9.59125 177.373 9.59125H175.124V12.3603H173.824V3.26025H177.373C179.739 3.26025 181.169 4.45625 181.169 6.43225C181.169 7.83625 180.441 8.85025 179.167 9.30525L181.325 12.3603ZM177.334 8.48625C178.998 8.48625 179.869 7.73225 179.869 6.43225C179.869 5.13225 178.998 4.39125 177.334 4.39125H175.124V8.48625H177.334Z" fill="#DCDCDC"></path><path d="M171.101 12.3603L170.1 10.0853H165.264L164.263 12.3603H162.924L167.045 3.26025H168.332L172.466 12.3603H171.101ZM165.719 9.04525H169.645L167.682 4.58625L165.719 9.04525Z" fill="#DCDCDC"></path><path d="M159.053 3.26025C161.419 3.26025 162.849 4.45625 162.849 6.43225C162.849 8.40825 161.419 9.60425 159.053 9.60425H156.804V12.3603H155.504V3.26025H159.053ZM159.014 8.47325C160.678 8.47325 161.549 7.73225 161.549 6.43225C161.549 5.13225 160.678 4.39125 159.014 4.39125H156.804V8.47325H159.014Z" fill="#DCDCDC"></path><path d="M146.591 12.4643C145.2 12.4643 143.835 11.9963 143.107 11.3203L143.588 10.3063C144.264 10.9173 145.421 11.3593 146.591 11.3593C148.164 11.3593 148.84 10.7482 148.84 9.95525C148.84 7.73225 143.328 9.13625 143.328 5.75625C143.328 4.35225 144.42 3.15625 146.812 3.15625C147.878 3.15625 148.983 3.44225 149.737 3.96225L149.308 5.00225C148.515 4.49525 147.618 4.26125 146.812 4.26125C145.265 4.26125 144.602 4.91125 144.602 5.70425C144.602 7.92725 150.114 6.53625 150.114 9.87725C150.114 11.2682 148.996 12.4643 146.591 12.4643Z" fill="#DCDCDC"></path><path d="M139.914 12.3603V3.26025H141.214V12.3603H139.914Z" fill="#DCDCDC"></path><path d="M134.091 12.3603V4.39125H130.971V3.26025H138.498V4.39125H135.378V12.3603H134.091Z" fill="#DCDCDC"></path><path d="M128.992 0.829102L126.808 2.5191H125.638L127.406 0.829102H128.992ZM130.019 12.3601L129.018 10.0851H124.182L123.181 12.3601H121.842L125.963 3.2601H127.25L131.384 12.3601H130.019ZM124.637 9.0451H128.563L126.6 4.5861L124.637 9.0451Z" fill="#DCDCDC"></path><path d="M121.274 12.3603H119.857L117.894 9.56525C117.712 9.57825 117.517 9.59125 117.322 9.59125H115.073V12.3603H113.773V3.26025H117.322C119.688 3.26025 121.118 4.45625 121.118 6.43225C121.118 7.83625 120.39 8.85025 119.116 9.30525L121.274 12.3603ZM117.283 8.48625C118.947 8.48625 119.818 7.73225 119.818 6.43225C119.818 5.13225 118.947 4.39125 117.283 4.39125H115.073V8.48625H117.283Z" fill="#DCDCDC"></path><path d="M110.038 10.7222V7.75825H111.286V11.3073C110.376 12.0742 109.115 12.4643 107.841 12.4643C105.046 12.4643 102.992 10.5013 102.992 7.81025C102.992 5.11925 105.046 3.15625 107.867 3.15625C109.31 3.15625 110.532 3.63725 111.364 4.56025L110.558 5.36625C109.804 4.63825 108.946 4.31325 107.919 4.31325C105.813 4.31325 104.292 5.78225 104.292 7.81025C104.292 9.81225 105.813 11.3073 107.906 11.3073C108.673 11.3073 109.388 11.1382 110.038 10.7222Z" fill="#DCDCDC"></path><path d="M92.8312 11.2293H98.1353V12.3603H91.5312V3.26025H97.9532V4.39125H92.8312V7.18625H97.3942V8.29125H92.8312V11.2293Z" fill="#DCDCDC"></path><path d="M85.7098 12.3603V4.39125H82.5898V3.26025H90.1168V4.39125H86.9968V12.3603H85.7098Z" fill="#DCDCDC"></path><path d="M76.4934 11.2293H81.7974V12.3603H75.1934V3.26025H81.6154V4.39125H76.4934V7.18625H81.0564V8.29125H76.4934V11.2293Z" fill="#DCDCDC"></path><path d="M73.249 12.3603H71.832L69.869 9.56525C69.687 9.57825 69.492 9.59125 69.297 9.59125H67.048V12.3603H65.748V3.26025H69.297C71.663 3.26025 73.093 4.45625 73.093 6.43225C73.093 7.83625 72.365 8.85025 71.091 9.30525L73.249 12.3603ZM69.258 8.48625C70.922 8.48625 71.793 7.73225 71.793 6.43225C71.793 5.13225 70.922 4.39125 69.258 4.39125H67.048V8.48625H69.258Z" fill="#DCDCDC"></path><path d="M63.9181 4.39125H58.7961V7.56325H63.3591V8.68125H58.7961V12.3603H57.4961V3.26025H63.9181V4.39125Z" fill="#DCDCDC"></path><path d="M191.811 34.7041V20.7041H195.051V32.0641H202.071V34.7041H191.811Z" fill="#DCDCDC"></path><path d="M185.248 34.7041V20.7041H188.488V34.7041H185.248Z" fill="#DCDCDC"></path><path d="M177.095 34.9439C174.875 34.9439 172.635 34.2839 171.395 33.3239L172.495 30.8839C173.675 31.7439 175.435 32.3439 177.115 32.3439C179.035 32.3439 179.815 31.7039 179.815 30.8439C179.815 28.2239 171.675 30.0239 171.675 24.8239C171.675 22.4439 173.595 20.4639 177.575 20.4639C179.335 20.4639 181.135 20.8839 182.435 21.7039L181.435 24.1639C180.135 23.4239 178.795 23.0639 177.555 23.0639C175.635 23.0639 174.895 23.7839 174.895 24.6639C174.895 27.2439 183.035 25.4639 183.035 30.6039C183.035 32.9439 181.095 34.9439 177.095 34.9439Z" fill="#DCDCDC"></path><path d="M167.642 34.7041L166.402 31.7041H159.902L158.662 34.7041H155.342L161.582 20.7041H164.782L171.042 34.7041H167.642ZM160.942 29.2441H165.382L163.162 23.8841L160.942 29.2441Z" fill="#DCDCDC"></path><path d="M154.875 34.7041H151.395L148.695 30.8041H148.535H145.715V34.7041H142.475V20.7041H148.535C152.275 20.7041 154.615 22.6441 154.615 25.7841C154.615 27.8841 153.555 29.4241 151.735 30.2041L154.875 34.7041ZM151.335 25.7841C151.335 24.2441 150.335 23.3441 148.355 23.3441H145.715V28.2241H148.355C150.335 28.2241 151.335 27.3041 151.335 25.7841Z" fill="#DCDCDC"></path><path d="M137.462 27.4241C139.022 27.9241 140.022 29.1241 140.022 30.8841C140.022 33.3041 138.102 34.7041 134.422 34.7041H127.182V20.7041H134.022C137.522 20.7041 139.322 22.1641 139.322 24.3441C139.322 25.7441 138.602 26.8241 137.462 27.4241ZM133.622 23.1441H130.402V26.4441H133.622C135.202 26.4441 136.062 25.8841 136.062 24.7841C136.062 23.6841 135.202 23.1441 133.622 23.1441ZM134.182 32.2641C135.862 32.2641 136.762 31.7441 136.762 30.5441C136.762 29.3641 135.862 28.8041 134.182 28.8041H130.402V32.2641H134.182Z" fill="#DCDCDC"></path><path d="M111.422 34.9439C107.002 34.9439 103.762 31.8639 103.762 27.7039C103.762 23.5439 107.002 20.4639 111.422 20.4639C115.822 20.4639 119.082 23.5239 119.082 27.7039C119.082 31.8839 115.822 34.9439 111.422 34.9439ZM111.422 32.1839C113.922 32.1839 115.802 30.3639 115.802 27.7039C115.802 25.0439 113.922 23.2239 111.422 23.2239C108.922 23.2239 107.042 25.0439 107.042 27.7039C107.042 30.3639 108.922 32.1839 111.422 32.1839Z" fill="#DCDCDC"></path><path d="M88.1191 34.7041V20.7041H94.4791C99.0591 20.7041 102.199 23.4641 102.199 27.7041C102.199 31.9441 99.0591 34.7041 94.4791 34.7041H88.1191ZM91.3591 32.0441H94.3191C97.0991 32.0441 98.9191 30.3841 98.9191 27.7041C98.9191 25.0241 97.0991 23.3641 94.3191 23.3641H91.3591V32.0441Z" fill="#DCDCDC"></path><path d="M78.0233 34.9439C73.6033 34.9439 70.3633 31.8639 70.3633 27.7039C70.3633 23.5439 73.6033 20.4639 78.0233 20.4639C82.4233 20.4639 85.6833 23.5239 85.6833 27.7039C85.6833 31.8839 82.4233 34.9439 78.0233 34.9439ZM78.0233 32.1839C80.5233 32.1839 82.4033 30.3639 82.4033 27.7039C82.4033 25.0439 80.5233 23.2239 78.0233 23.2239C75.5233 23.2239 73.6433 25.0439 73.6433 27.7039C73.6433 30.3639 75.5233 32.1839 78.0233 32.1839Z" fill="#DCDCDC"></path><path d="M61.9761 34.7041V23.3441H57.4961V20.7041H69.6961V23.3441H65.2161V34.7041H61.9761Z" fill="#DCDCDC"></path></g></svg>